HIERARCHY
ROOT Hips
{
    OFFSET   0.000000   0.000000   0.000000
    CHANNELS 6 Xposition Yposition Zposition Zrotation Xrotation Yrotation
    JOINT Chest
    {
        OFFSET   0.000000   8.007230   0.000000
        CHANNELS 3 Zrotation Xrotation Yrotation
        JOINT Chest2
        {
            OFFSET   0.000000  22.077100   0.000000
            CHANNELS 3 Zrotation Xrotation Yrotation
            JOINT Neck
            {
                OFFSET   0.000000  23.254700   0.000000
                CHANNELS 3 Zrotation Xrotation Yrotation
                JOINT Head
                {
                    OFFSET   0.000010  14.370000   1.956610
                    CHANNELS 3 Zrotation Xrotation Yrotation
                    End Site
                    {
                        OFFSET   0.000000  19.566000   0.000000
                    }
                }
            }
            JOINT LeftCollar
            {
                OFFSET   3.911900  19.017000  -0.467063
                CHANNELS 3 Zrotation Xrotation Yrotation
                JOINT LeftShoulder
                {
                    OFFSET  10.383700   0.000000   0.000000
                    CHANNELS 3 Zrotation Xrotation Yrotation
                    JOINT LeftElbow
                    {
                        OFFSET  26.662100   0.001671   0.000522
                        CHANNELS 3 Zrotation Xrotation Yrotation
                        JOINT LeftWrist
                        {
                            OFFSET  28.869000   0.000037  -0.000114
                            CHANNELS 3 Zrotation Xrotation Yrotation
                            JOINT LeftFinger0
                            {
                                OFFSET   2.044650  -2.323450   3.252850
                                CHANNELS 3 Zrotation Xrotation Yrotation
                                JOINT LeftFinger01
                                {
                                    OFFSET   3.088140   0.000000   0.000000
                                    CHANNELS 3 Zrotation Xrotation Yrotation
                                    JOINT LeftFinger02
                                    {
                                        OFFSET   2.639460   0.000000   0.000000
                                        CHANNELS 3 Zrotation Xrotation Yrotation
                                        End Site
                                        {
                                            OFFSET   2.582190   0.000000   0.000000
                                        }
                                    }
                                }
                            }
                            JOINT LeftFinger1
                            {
                                OFFSET   8.364480   0.000000   3.252850
                                CHANNELS 3 Zrotation Xrotation Yrotation
                                JOINT LeftFinger11
                                {
                                    OFFSET   4.646930   0.000000   0.000000
                                    CHANNELS 3 Zrotation Xrotation Yrotation
                                    JOINT LeftFinger12
                                    {
                                        OFFSET   2.323470   0.000000   0.000000
                                        CHANNELS 3 Zrotation Xrotation Yrotation
                                        End Site
                                        {
                                            OFFSET   2.273050   0.000000   0.000000
                                        }
                                    }
                                }
                            }
                            JOINT LeftFinger2
                            {
                                OFFSET   8.364490   0.000016   1.078090
                                CHANNELS 3 Zrotation Xrotation Yrotation
                                JOINT LeftFinger21
                                {
                                    OFFSET   5.111620   0.000000   0.000000
                                    CHANNELS 3 Zrotation Xrotation Yrotation
                                    JOINT LeftFinger22
                                    {
                                        OFFSET   2.788150   0.000013   0.000000
                                        CHANNELS 3 Zrotation Xrotation Yrotation
                                        End Site
                                        {
                                            OFFSET   2.727660   0.000000   0.000000
                                        }
                                    }
                                }
                            }
                            JOINT LeftFinger3
                            {
                                OFFSET   7.899780   0.000016  -1.078090
                                CHANNELS 3 Zrotation Xrotation Yrotation
                                JOINT LeftFinger31
                                {
                                    OFFSET   4.646930   0.000000   0.000000
                                    CHANNELS 3 Zrotation Xrotation Yrotation
                                    JOINT LeftFinger32
                                    {
                                        OFFSET   2.323470   0.000000   0.000000
                                        CHANNELS 3 Zrotation Xrotation Yrotation
                                        End Site
                                        {
                                            OFFSET   2.273050   0.000000   0.000000
                                        }
                                    }
                                }
                            }
                            JOINT LeftFinger4
                            {
                                OFFSET   7.435080   0.000000  -3.252850
                                CHANNELS 3 Zrotation Xrotation Yrotation
                                JOINT LeftFinger41
                                {
                                    OFFSET   3.717550   0.000000   0.000000
                                    CHANNELS 3 Zrotation Xrotation Yrotation
                                    JOINT LeftFinger42
                                    {
                                        OFFSET   1.858760   0.000000   0.000000
                                        CHANNELS 3 Zrotation Xrotation Yrotation
                                        End Site
                                        {
                                            OFFSET   1.818440   0.000000   0.000000
                                        }
                                    }
                                }
                            }
                        }
                    }
                }
            }
            JOINT RightCollar
            {
                OFFSET  -3.911900  19.017000  -0.467064
                CHANNELS 3 Zrotation Xrotation Yrotation
                JOINT RightShoulder
                {
                    OFFSET -10.383700   0.000000   0.000000
                    CHANNELS 3 Zrotation Xrotation Yrotation
                    JOINT RightElbow
                    {
                        OFFSET -26.662100   0.001633   0.000260
                        CHANNELS 3 Zrotation Xrotation Yrotation
                        JOINT RightWrist
                        {
                            OFFSET -28.869000  -0.000045  -0.000080
                            CHANNELS 3 Zrotation Xrotation Yrotation
                            JOINT RightFinger0
                            {
                                OFFSET  -2.044660  -2.323490   3.252850
                                CHANNELS 3 Zrotation Xrotation Yrotation
                                JOINT RightFinger01
                                {
                                    OFFSET  -3.088140   0.000000   0.000000
                                    CHANNELS 3 Zrotation Xrotation Yrotation
                                    JOINT RightFinger02
                                    {
                                        OFFSET  -2.639450   0.000000   0.000000
                                        CHANNELS 3 Zrotation Xrotation Yrotation
                                        End Site
                                        {
                                            OFFSET  -2.582190   0.000000   0.000000
                                        }
                                    }
                                }
                            }
                            JOINT RightFinger1
                            {
                                OFFSET  -8.364480   0.000000   3.252850
                                CHANNELS 3 Zrotation Xrotation Yrotation
                                JOINT RightFinger11
                                {
                                    OFFSET  -4.646920   0.000000   0.000000
                                    CHANNELS 3 Zrotation Xrotation Yrotation
                                    JOINT RightFinger12
                                    {
                                        OFFSET  -2.323470   0.000000   0.000000
                                        CHANNELS 3 Zrotation Xrotation Yrotation
                                        End Site
                                        {
                                            OFFSET  -2.273050   0.000000   0.000000
                                        }
                                    }
                                }
                            }
                            JOINT RightFinger2
                            {
                                OFFSET  -8.364480   0.000000   1.078090
                                CHANNELS 3 Zrotation Xrotation Yrotation
                                JOINT RightFinger21
                                {
                                    OFFSET  -5.111610   0.000000   0.000000
                                    CHANNELS 3 Zrotation Xrotation Yrotation
                                    JOINT RightFinger22
                                    {
                                        OFFSET  -2.788160   0.000000   0.000000
                                        CHANNELS 3 Zrotation Xrotation Yrotation
                                        End Site
                                        {
                                            OFFSET  -2.727660   0.000000   0.000000
                                        }
                                    }
                                }
                            }
                            JOINT RightFinger3
                            {
                                OFFSET  -7.899780   0.000000  -1.078090
                                CHANNELS 3 Zrotation Xrotation Yrotation
                                JOINT RightFinger31
                                {
                                    OFFSET  -4.646930   0.000000   0.000000
                                    CHANNELS 3 Zrotation Xrotation Yrotation
                                    JOINT RightFinger32
                                    {
                                        OFFSET  -2.323470   0.000000   0.000000
                                        CHANNELS 3 Zrotation Xrotation Yrotation
                                        End Site
                                        {
                                            OFFSET  -2.273050   0.000000   0.000000
                                        }
                                    }
                                }
                            }
                            JOINT RightFinger4
                            {
                                OFFSET  -7.435090   0.000000  -3.252850
                                CHANNELS 3 Zrotation Xrotation Yrotation
                                JOINT RightFinger41
                                {
                                    OFFSET  -3.717550   0.000000   0.000000
                                    CHANNELS 3 Zrotation Xrotation Yrotation
                                    JOINT RightFinger42
                                    {
                                        OFFSET  -1.858760   0.000000   0.000000
                                        CHANNELS 3 Zrotation Xrotation Yrotation
                                        End Site
                                        {
                                            OFFSET  -1.818440   0.000000   0.000000
                                        }
                                    }
                                }
                            }
                        }
                    }
                }
            }
        }
    }
    JOINT LeftHip
    {
        OFFSET   9.782990   0.000000   0.000000
        CHANNELS 3 Zrotation Xrotation Yrotation
        JOINT LeftKnee
        {
            OFFSET  -0.000063 -41.789100   0.001657
            CHANNELS 3 Zrotation Xrotation Yrotation
            JOINT LeftAnkle
            {
                OFFSET   0.000078 -41.133200  -0.000113
                CHANNELS 3 Zrotation Xrotation Yrotation
                JOINT LeftToe
                {
                    OFFSET   0.000000  -6.358970  14.674500
                    CHANNELS 3 Zrotation Xrotation Yrotation
                    End Site
                    {
                        OFFSET   0.000000   0.000000   3.913200
                    }
                }
            }
        }
    }
    JOINT RightHip
    {
        OFFSET  -9.782990   0.000000   0.000000
        CHANNELS 3 Zrotation Xrotation Yrotation
        JOINT RightKnee
        {
            OFFSET   0.000053 -41.789200   0.000277
            CHANNELS 3 Zrotation Xrotation Yrotation
            JOINT RightAnkle
            {
                OFFSET   0.000030 -41.133200  -0.000150
                CHANNELS 3 Zrotation Xrotation Yrotation
                JOINT RightToe
                {
                    OFFSET   0.000000  -6.358960  14.674500
                    CHANNELS 3 Zrotation Xrotation Yrotation
                    End Site
                    {
                        OFFSET   0.000000   0.000000   3.913200
                    }
                }
            }
        }
    }
}
MOTION
Frames: 5
Frame Time:   0.016667
  0.336602  89.589600   0.347340  -1.847020  -5.709330  -0.298672   0.507254   3.015670   0.180940   1.007050   6.032800   0.335794   0.308569   1.017110  -0.008275   0.507109   2.062310   1.222510  -1.053510   0.699691  -0.286248 -76.125800  10.462200  -0.356178  -1.297340  -3.214960 -12.412100  11.741300  -6.477760  -1.117000  41.202700  26.675000 -64.727400 -16.970600   0.000000   0.000332  -3.485290   0.001561   0.000000 -25.641900   5.314180 -10.920600 -21.395700   0.008204   0.001569 -14.977000   0.011871   0.000461 -27.984000  -0.448338   0.843799 -31.918000  -0.001244   0.001375 -21.257400  -0.000397   0.001662 -27.848300  -0.446342   0.844779 -31.094400   0.001513  -0.009558 -20.708800  -0.004579   0.001142 -29.552800  -0.471345   0.831380 -44.334500  -0.001684   0.000943 -29.526700  -0.001272   0.000000   6.530540   1.000380   3.846730  70.810500  -0.732960  -5.253660   1.643400  -8.816620   5.563690  -8.378010   5.092970   5.945130 -47.394400  32.044500  67.016300  11.915900   0.001516  -0.002193   0.957944  -0.002387   0.000627  19.806400   3.729030  10.234800  16.482700   0.000137  -0.001918  11.537900  -0.000265  -0.001410  27.869800   4.172030   7.833730  33.071000   0.011051   0.006402  22.025300   0.002486   0.001081  24.929200   3.422870   7.320280  25.147300   0.010510   0.010789  16.748100   0.000828   0.005385  29.156000   1.384250   2.479630  43.778700   0.001903   0.008146  29.156600   0.004236   0.005080   1.960650   7.948240   2.118100   0.878138  -0.060177  -3.440800  -1.978730  -2.773260  -0.803225   0.000000   0.000000   0.000000   1.620200   6.516580   0.048716  -1.172070   2.563000  -1.602110   0.324584  -4.243810  -1.024610  -0.000000   0.000000  -0.000000
  0.322781  89.593000   0.330401  -1.848720  -5.739110  -0.310921   0.505049   3.042420   0.185470   1.002340   6.086350   0.344761   0.310008   1.017060  -0.008258   0.508497   2.062290   1.384050  -1.068240   0.699421  -0.305051 -76.133400  10.576500  -0.407587  -1.319300  -3.234910 -12.379000  11.753500  -6.475560  -1.110880  41.215700  26.655400 -64.682500 -16.950400   0.000000   0.000333  -3.475200   0.001560   0.000000 -25.648000   5.320610 -10.930500 -21.401600   0.008208   0.001569 -14.981200   0.011868   0.000462 -27.975700  -0.445418   0.838542 -31.863500  -0.001244   0.001374 -21.221000  -0.000396   0.001663 -27.851100  -0.443572   0.839476 -31.107100   0.001514  -0.009559 -20.717300  -0.004578   0.001143 -29.512600  -0.467835   0.826345 -44.274200  -0.001685   0.000945 -29.486500  -0.001272   0.000000   6.538500   0.997256   3.869670  70.765200  -0.365369  -4.816670   1.646190  -8.878710   5.276530  -8.340630   5.205930   5.808470 -47.384200  32.079200  67.108100  12.184700   0.001519  -0.002068   1.092340  -0.002384   0.000642  19.813400   3.714110  10.190200  16.484700   0.000134  -0.001916  11.539300  -0.000264  -0.001412  27.882200   4.141960   7.773350  33.131500   0.011057   0.006392  22.065600   0.002482   0.001060  24.960500   3.379190   7.221160  25.172800   0.010505   0.010803  16.765100   0.000821   0.005370  29.183300   1.379960   2.469300  43.819200   0.001893   0.008130  29.183600   0.004227   0.005073   1.970140   7.948810   2.108470   0.884060  -0.009414  -3.439900  -1.997770  -2.792100  -0.777131   0.000000   0.000000   0.000000   1.627220   6.529830   0.023901  -1.171760   2.574950  -1.568060   0.318040  -4.242230  -1.021730   0.000000   0.000000   0.000000
  0.299336  89.599000   0.300375  -1.855030  -5.798550  -0.348123   0.498553   3.102170   0.194356   0.988724   6.205920   0.362425   0.320090   1.016690  -0.008222   0.526284   2.062130   1.666450  -1.091460   0.697534  -0.353658 -76.135500  10.767000  -0.483842  -1.364910  -3.275710 -12.346000  11.765900  -6.460040  -1.104730  41.228700  26.635800 -64.637700 -16.915700   0.000000   0.000335  -3.457880   0.001555   0.000000 -25.657400   5.331800 -10.948300 -21.410800   0.008215   0.001569 -14.987600   0.011864   0.000467 -27.967100  -0.438228   0.825306 -31.808600  -0.001244   0.001374 -21.184500  -0.000396   0.001663 -27.856200  -0.436607   0.826170 -31.129100   0.001514  -0.009562 -20.732000  -0.004578   0.001144 -29.463900  -0.459681   0.813497 -44.201000  -0.001685   0.000949 -29.437800  -0.001272  -0.000000   6.553360   0.975529   3.915170  70.670100   0.279925  -4.020570   1.621560  -8.963840   4.805660  -8.230650   5.502840   5.540440 -47.393200  32.220900  67.387900  12.629300   0.001535  -0.001853   1.314650  -0.002382   0.000672  19.824500   3.699190  10.145700  16.489600   0.000131  -0.001913  11.542700  -0.000262  -0.001413  27.897300   4.111880   7.712970  33.218900   0.011076   0.006366  22.123800   0.002471   0.001010  25.005400   3.326630   7.092100  25.211400   0.010489   0.010834  16.790800   0.000803   0.005335  29.233100   1.372060   2.450270  43.893300   0.001872   0.008092  29.233000   0.004204   0.005058   1.987780   7.952590   2.092110   0.895649   0.060991  -3.433590  -2.030480  -2.818250  -0.722978  -0.000000   0.000000   0.000000   1.640170   6.555630  -0.022080  -1.170200   2.599240  -1.501700   0.308302  -4.237560  -1.004890  -0.000000   0.000000   0.000000
  0.279618  89.604600   0.272619  -1.869250  -5.862820  -0.408565   0.486979   3.180700   0.204630   0.964796   6.363040   0.383020   0.347030   1.001820  -0.008166   0.571589   2.031690   1.917610  -1.107900   0.635623  -0.434287 -76.109900  10.917500  -0.523399  -1.421050  -3.322470 -12.352400  11.729500  -6.389930  -1.116250  41.227100  26.636400 -64.642300 -16.878100   0.000000   0.000329  -3.439060   0.001550   0.000000 -25.664400   5.342780 -10.967300 -21.418300   0.008220   0.001569 -14.991900   0.011863   0.000478 -27.967100  -0.424104   0.798898 -31.808100  -0.001245   0.001378 -21.184200  -0.000398   0.001662 -27.861900  -0.422689   0.799700 -31.149900   0.001518  -0.009565 -20.745800  -0.004580   0.001143 -29.454100  -0.444615   0.787575 -44.186000  -0.001685   0.000950 -29.427800  -0.001273   0.000000   6.570360   0.911599   3.963990  70.571700   0.868808  -3.240160   1.561540  -8.993860   4.418660  -8.064690   5.915760   5.237200 -47.477900  32.520100  67.898600  13.063800   0.001572  -0.001618   1.531890  -0.002386   0.000706  19.836000   3.711110  10.172000  16.499400   0.000129  -0.001909  11.549500  -0.000260  -0.001409  27.903200   4.114870   7.718160  33.266200   0.011107   0.006327  22.155300   0.002450   0.000935  25.032400   3.316310   7.057150  25.238600   0.010462   0.010880  16.808900   0.000773   0.005281  29.288100   1.363140   2.428920  43.975200   0.001843   0.008035  29.287500   0.004165   0.005038   2.003030   7.989040   2.074950   0.909316   0.088793  -3.418330  -2.059800  -2.827160  -0.657802   0.000000   0.000000   0.000000   1.651500   6.581320  -0.070869  -1.164650   2.626670  -1.429510   0.302516  -4.229760  -0.966911   0.000000   0.000000  -0.000000
  0.259620  89.610500   0.242641  -1.894620  -5.946590  -0.498326   0.472893   3.279630   0.215786   0.935694   6.560920   0.405399   0.390362   0.973668  -0.008127   0.641657   1.973650   2.189320  -1.122960   0.522408  -0.524656 -76.072000  11.072100  -0.554625  -1.484540  -3.382210 -12.372700  11.669200  -6.298140  -1.139590  41.218600  26.647700 -64.666100 -16.854900   0.000000   0.000323  -3.427460   0.001539  -0.000000 -25.668100   5.352320 -10.984400 -21.422500   0.008225   0.001570 -14.994800   0.011863   0.000493 -27.967300  -0.414178   0.779970 -31.808100  -0.001247   0.001384 -21.184200  -0.000403   0.001661 -27.866100  -0.412777   0.780751 -31.169100   0.001524  -0.009570 -20.758600  -0.004583   0.001142 -29.453000  -0.434194   0.768878 -44.183900  -0.001686   0.000952 -29.426400  -0.001275  -0.000000   6.587920   0.824807   4.027150  70.429700   1.485800  -2.378870   1.499820  -9.001980   4.094840  -7.789080   6.565230   4.894040 -47.565000  32.881600  68.539900  13.322400   0.001617  -0.001473   1.661220  -0.002392   0.000749  19.834300   3.747430  10.266700  16.506200   0.000129  -0.001904  11.554300  -0.000259  -0.001404  27.902600   4.135810   7.754510  33.286500   0.011145   0.006281  22.168800   0.002424   0.000850  25.045700   3.314840   7.052160  25.252600   0.010427   0.010933  16.818200   0.000736   0.005216  29.336600   1.355320   2.409980  44.047600   0.001807   0.007969  29.335700   0.004118   0.005014   2.022370   8.070880   2.064760   0.923450   0.096956  -3.393410  -2.088150  -2.831760  -0.578753  -0.000000   0.000000  -0.000000   1.667660   6.617080  -0.120623  -1.162030   2.661730  -1.343700   0.299000  -4.218940  -0.912879  -0.000000   0.000000   0.000000
